<svg xmlns="http://www.w3.org/2000/svg" width="16" height="14" viewBox="0 0 16 14">
  <path id="Icon_color" data-name="Icon color" d="M13.6,14H10.8a.4.4,0,0,1-.4-.389v-.778a.4.4,0,0,1,.4-.389h2.8V9.722a.4.4,0,0,1,.4-.389h.8a.4.4,0,0,1,.4.389v2.722A1.58,1.58,0,0,1,13.6,14ZM5.2,14H2.4A1.58,1.58,0,0,1,.8,12.445V9.722a.4.4,0,0,1,.4-.389H2a.4.4,0,0,1,.4.389v2.722H5.2a.4.4,0,0,1,.4.389v.778A.4.4,0,0,1,5.2,14ZM15.6,7.778H.4A.4.4,0,0,1,0,7.389V6.611a.4.4,0,0,1,.4-.389H15.6a.4.4,0,0,1,.4.389v.778A.4.4,0,0,1,15.6,7.778Zm-.8-3.111H14a.4.4,0,0,1-.4-.389V1.555H10.8a.4.4,0,0,1-.4-.388V.389A.4.4,0,0,1,10.8,0h2.8a1.58,1.58,0,0,1,1.6,1.555V4.278A.4.4,0,0,1,14.8,4.667ZM2,4.667H1.2a.4.4,0,0,1-.4-.389V1.555A1.58,1.58,0,0,1,2.4,0H5.2a.4.4,0,0,1,.4.389v.778a.4.4,0,0,1-.4.388H2.4V4.278A.4.4,0,0,1,2,4.667Z" fill="#f5f5f5"/>
</svg>
